<svg width="14" height="13" viewBox="0 0 14 13" fill="none" xmlns="http://www.w3.org/2000/svg">
<g style="mix-blend-mode:luminosity">
<path d="M5.93994 9.99609C6.94922 9.99609 7.89502 9.69141 8.68213 9.1709L11.4624 11.9575C11.6465 12.1353 11.8813 12.2241 12.1353 12.2241C12.6621 12.2241 13.0493 11.8115 13.0493 11.291C13.0493 11.0498 12.9668 10.8149 12.7891 10.6372L10.0278 7.86328C10.5991 7.05713 10.9355 6.06689 10.9355 5.00049C10.9355 2.25195 8.68848 0.00488281 5.93994 0.00488281C3.19775 0.00488281 0.944336 2.25195 0.944336 5.00049C0.944336 7.74902 3.19141 9.99609 5.93994 9.99609ZM5.93994 8.66309C3.92773 8.66309 2.27734 7.0127 2.27734 5.00049C2.27734 2.99463 3.92773 1.33789 5.93994 1.33789C7.95215 1.33789 9.60254 2.99463 9.60254 5.00049C9.60254 7.0127 7.95215 8.66309 5.93994 8.66309Z" fill="#797979"/>
</g>
</svg>
